<?xml version="1.0" encoding="utf-8"?>
<!-- Generator: Adobe Illustrator 24.3.0, SVG Export Plug-In . SVG Version: 6.00 Build 0)  -->
<svg version="1.1" id="Capa_1" xmlns="http://www.w3.org/2000/svg" xmlns:xlink="http://www.w3.org/1999/xlink" x="0px" y="0px"
	 viewBox="0 0 538.24 512" style="enable-background:new 0 0 538.24 512;" xml:space="preserve">
<style type="text/css">
	.st0{fill:#FFFFFF;}
	.st1{fill:#2CBAF3;}
	.st2{fill:#282828;}
</style>
<path class="st0" d="M532.32,45.67c0-6.06-4.91-10.97-10.97-10.97h-95.94c0.24-6.85,0.37-13.74,0.37-20.66
	c0-6.06-4.91-10.97-10.97-10.97H121.88c-6.06,0-10.97,4.91-10.97,10.97c0,6.93,0.13,13.82,0.37,20.66H15.34
	c-6.06,0-10.97,4.91-10.97,10.97c0,86.52,63.31,157.89,145.16,165.04c1.77,3.84,3.59,7.62,5.47,11.3
	c22.08,43.29,50.07,72.06,80.88,83.93c-12.57,9.73-20.69,24.95-20.69,42.04c0,18.31,9.3,34.48,23.43,44.04v11.75
	c0,34.01-27.66,61.68-61.67,61.68c-6.06,0-10.97,4.91-10.97,10.97v26.69c0,6.06,4.91,10.97,10.97,10.97h182.78
	c6.06,0,10.97-4.91,10.97-10.97v-26.69c0-6.06-4.91-10.97-10.97-10.97c-16.47,0-31.96-6.42-43.61-18.07
	c-11.65-11.65-18.07-27.14-18.07-43.62v-11.74c14.13-9.56,23.44-25.74,23.44-44.05c0-17.09-8.12-32.31-20.69-42.04
	c30.81-11.86,58.79-40.64,80.88-83.93c1.88-3.69,3.7-7.46,5.47-11.3C469.01,203.56,532.32,132.19,532.32,45.67z M424.22,56.64h41.25
	c-3.21,44.83-26.01,84.93-61.25,109.19C414.55,132.44,421.34,95.45,424.22,56.64z M112.48,56.64c2.88,38.81,9.67,75.81,20,109.19
	c-35.25-24.26-58.04-64.36-61.25-109.19H112.48z M26.7,56.64h22.56c3.13,49.98,27.51,95.07,65.72,123.64
	C66.07,161.07,30.76,113.39,26.7,56.64z M300.61,462.9c13.18,13.18,29.98,21.42,48.16,23.78v5.46H187.92v-5.47
	c40.94-5.39,72.64-40.51,72.64-82.9v-3.21c2.54,0.37,5.14,0.58,7.79,0.58c2.64,0,5.23-0.2,7.77-0.57v3.21
	C276.12,426.1,284.82,447.1,300.61,462.9z M268.35,379.2c-17.21,0-31.21-14-31.21-31.21c0-17.21,14-31.21,31.21-31.21
	c17.21,0,31.21,14,31.21,31.21C299.56,365.19,285.56,379.2,268.35,379.2z M268.35,290.14c-34.79,0-68.1-27.74-93.8-78.1
	c-25.58-50.13-40.22-116.19-41.6-187.04h270.79c-1.37,70.85-16.02,136.91-41.6,187.04C336.45,262.41,303.14,290.14,268.35,290.14z
	 M421.71,180.28c38.21-28.57,62.59-73.66,65.72-123.64h22.56C505.94,113.39,470.62,161.07,421.71,180.28z"/>
<g>
	<circle class="st1" cx="389.24" cy="222.72" r="111.13"/>
	<g>
		<path class="st2" d="M385.44,254.29c-3.06,0-6.03-1.15-8.29-3.26l-19.42-18.08c-4.92-4.58-5.19-12.28-0.61-17.2
			c4.58-4.92,12.28-5.19,17.2-0.61l9.16,8.53l19-27.3c3.84-5.52,11.42-6.88,16.94-3.04c5.52,3.84,6.87,11.42,3.03,16.94
			l-27.02,38.81c-2.01,2.89-5.19,4.77-8.69,5.15C386.31,254.27,385.87,254.29,385.44,254.29L385.44,254.29z"/>
	</g>
</g>
</svg>
